<svg width="16" height="16" viewBox="0 0 16 16" fill="none" xmlns="http://www.w3.org/2000/svg">
<path d="M8 14.6667C7.84445 14.6667 7.71111 14.6223 7.6 14.5334C7.48889 14.4445 7.40556 14.3278 7.35 14.1834C7.13889 13.5612 6.87222 12.9778 6.55 12.4334C6.23889 11.8889 5.8 11.25 5.23334 10.5167C4.66667 9.78337 4.20556 9.08337 3.85 8.41671C3.50556 7.75004 3.33334 6.94448 3.33334 6.00004C3.33334 4.70004 3.78334 3.60004 4.68334 2.70004C5.59445 1.78893 6.7 1.33337 8 1.33337C9.3 1.33337 10.4 1.78893 11.3 2.70004C12.2111 3.60004 12.6667 4.70004 12.6667 6.00004C12.6667 7.01115 12.4722 7.8556 12.0833 8.53337C11.7056 9.20004 11.2667 9.86115 10.7667 10.5167C10.1667 11.3167 9.71111 11.9834 9.4 12.5167C9.1 13.0389 8.85 13.5945 8.65 14.1834C8.59445 14.3389 8.50556 14.4612 8.38334 14.55C8.27223 14.6278 8.14445 14.6667 8 14.6667ZM8 7.66671C8.46667 7.66671 8.86111 7.5056 9.18334 7.18337C9.50556 6.86115 9.66667 6.46671 9.66667 6.00004C9.66667 5.53337 9.50556 5.13893 9.18334 4.81671C8.86111 4.49448 8.46667 4.33337 8 4.33337C7.53334 4.33337 7.13889 4.49448 6.81667 4.81671C6.49445 5.13893 6.33334 5.53337 6.33334 6.00004C6.33334 6.46671 6.49445 6.86115 6.81667 7.18337C7.13889 7.5056 7.53334 7.66671 8 7.66671Z" fill="#0A2344"/>
</svg>
