<svg width="134" height="134" viewBox="0 0 134 134" fill="none" xmlns="http://www.w3.org/2000/svg">
<path d="M67 66.9997C60.8584 66.9997 55.6007 64.8129 51.2271 60.4393C46.8535 56.0656 44.6667 50.808 44.6667 44.6663C44.6667 38.5247 46.8535 33.267 51.2271 28.8934C55.6007 24.5198 60.8584 22.333 67 22.333C73.1417 22.333 78.3993 24.5198 82.773 28.8934C87.1466 33.267 89.3334 38.5247 89.3334 44.6663C89.3334 50.808 87.1466 56.0656 82.773 60.4393C78.3993 64.8129 73.1417 66.9997 67 66.9997ZM22.3334 111.666V96.033C22.3334 92.8691 23.1476 89.9611 24.7761 87.309C26.4046 84.657 28.5681 82.633 31.2667 81.2372C37.0362 78.3525 42.8987 76.1889 48.8542 74.7465C54.8098 73.3042 60.8584 72.583 67 72.583C73.1417 72.583 79.1903 73.3042 85.1459 74.7465C91.1014 76.1889 96.9639 78.3525 102.733 81.2372C105.432 82.633 107.596 84.657 109.224 87.309C110.852 89.9611 111.667 92.8691 111.667 96.033V111.666H22.3334ZM33.5 100.5H100.5V96.033C100.5 95.0094 100.244 94.0788 99.7323 93.2413C99.2205 92.4038 98.5459 91.7524 97.7084 91.2872C92.6834 88.7747 87.6118 86.8903 82.4938 85.634C77.3757 84.3778 72.2111 83.7497 67 83.7497C61.7889 83.7497 56.6243 84.3778 51.5063 85.634C46.3882 86.8903 41.3167 88.7747 36.2917 91.2872C35.4542 91.7524 34.7796 92.4038 34.2677 93.2413C33.7559 94.0788 33.5 95.0094 33.5 96.033V100.5ZM67 55.833C70.0709 55.833 72.6997 54.7396 74.8865 52.5528C77.0733 50.366 78.1667 47.7372 78.1667 44.6663C78.1667 41.5955 77.0733 38.9667 74.8865 36.7799C72.6997 34.5931 70.0709 33.4997 67 33.4997C63.9292 33.4997 61.3004 34.5931 59.1136 36.7799C56.9268 38.9667 55.8334 41.5955 55.8334 44.6663C55.8334 47.7372 56.9268 50.366 59.1136 52.5528C61.3004 54.7396 63.9292 55.833 67 55.833Z" fill="#0A2344"/>
</svg>
